<?xml version="1.0" encoding="utf-8"?>
<!-- Generator: Adobe Illustrator 23.0.3, SVG Export Plug-In . SVG Version: 6.00 Build 0)  -->
<svg version="1.1" xmlns="http://www.w3.org/2000/svg" xmlns:xlink="http://www.w3.org/1999/xlink" x="0px" y="0px"
	 viewBox="0 0 256 256" style="enable-background:new 0 0 256 256;" xml:space="preserve">
<style type="text/css">
	.st0{fill:#878787;}
	.st1{fill:#F2E1D6;}
	.st2{fill:#FFFFFF;}
	.st3{fill:#F0C020;}
	.st4{fill:#F9E5AF;}
	.st5{fill:#72C1E8;}
	.st6{fill:#C5E5FF;}
	.st7{fill:#13BF6D;}
	.st8{fill:#76FFBA;}
	.st9{fill:#EFEFEF;}
	.st10{fill:#FC5D3D;}
	.st11{fill:#FFCBC2;}
	.st12{fill:#FFB69F;}
	.st13{fill:#AFAFAF;}
	.st14{fill:#7C7B7A;}
	.st15{fill:#D6C0B4;}
	.st16{fill:#7A7380;}
	.st17{fill:#F0AB20;}
	.st18{fill:#FBE0E2;}
	.st19{fill:#4C4945;}
	.st20{fill:#68B0D4;}
	.st21{fill:#B35034;}
	.st22{fill:#EDAF85;}
	.st23{fill:#139C6D;}
</style>
<g id="Layer_2">
</g>
<g id="Layer_1">
	<g>
		<g>
			<g>
				<polygon class="st9" points="213.9,49.873 213.9,250.02 42.1,250.02 42.1,5.98 170.003,5.98 				"/>
			</g>
			<g>
				<path class="st14" d="M213.9,49.873h-40.897c-1.657,0-3-1.343-3-3V5.98L213.9,49.873z"/>
			</g>
			<g>
				<g>
					<g>
						<path class="st7" d="M105.574,165.585l-30.319-30.319c-3.905-3.905-3.905-10.237,0-14.143c3.905-3.904,10.237-3.904,14.143,0
							l23.248,23.248l53.958-53.958c3.906-3.904,10.236-3.904,14.143,0c3.905,3.905,3.905,10.237,0,14.143l-61.029,61.029
							C115.812,169.49,109.479,169.491,105.574,165.585z"/>
					</g>
				</g>
				<g>
					<path class="st2" d="M197,234.47h-7.94c-1.381,0-2.5-1.119-2.5-2.5s1.119-2.5,2.5-2.5H197c1.381,0,2.5,1.119,2.5,2.5
						S198.381,234.47,197,234.47z M179.06,234.47H57c-1.381,0-2.5-1.119-2.5-2.5V24.03c0-1.381,1.119-2.5,2.5-2.5s2.5,1.119,2.5,2.5
						v205.44h119.56c1.381,0,2.5,1.119,2.5,2.5S180.441,234.47,179.06,234.47z"/>
				</g>
			</g>
		</g>
		<circle cx="42.1" cy="191.97" r="2.5"/>
		<path d="M39.6,250.02c0,1.367,1.112,2.5,2.5,2.5h171.8c1.402,0,2.5-1.132,2.5-2.5V49.87c0-0.686-0.322-1.353-0.73-1.77
			L171.78,4.21c-0.405-0.397-1.097-0.73-1.77-0.73H42.1c-1.366,0-2.5,1.111-2.5,2.5v175.99c0,1.38,1.12,2.5,2.5,2.5
			c1.38,0,2.5-1.12,2.5-2.5v-0.01V8.48h122.903v38.394c0,3.033,2.467,5.5,5.5,5.5H211.4V247.52H44.6v-45.55c0-1.38-1.12-2.5-2.5-2.5
			c-1.38,0-2.5,1.12-2.5,2.5V250.02z M173.003,47.374c-0.276,0-0.5-0.224-0.5-0.5V12.019l35.354,35.355H173.003z"/>
		<path d="M73.49,137.03l30.32,30.32c4.866,4.866,12.775,4.893,17.67,0l22.08-22.07c0.97-0.98,0.97-2.56,0-3.53
			c-0.94-0.95-2.58-0.95-3.53-0.01h-0.01l-22.07,22.08c-2.947,2.927-7.672,2.918-10.61,0L77.02,133.5
			c-2.928-2.948-2.918-7.671,0-10.61c2.943-2.922,7.653-2.935,10.61,0l23.25,23.25c0.94,0.94,2.59,0.94,3.53,0l53.96-53.96
			c2.902-2.901,7.647-2.942,10.61,0c2.928,2.95,2.917,7.671,0,10.61l-24.82,24.81c-0.974,0.974-0.974,2.566,0,3.54
			c0.95,0.94,2.59,0.94,3.54,0l24.81-24.82c4.887-4.866,4.895-12.796,0-17.67c-4.901-4.901-12.816-4.863-17.68,0l-52.19,52.19
			l-21.47-21.48c-4.861-4.861-12.777-4.903-17.68,0C68.602,124.226,68.595,132.156,73.49,137.03z"/>
		<path d="M150.63,138.21c0.938-0.939,1.01-2.508,0-3.54c-0.95-0.94-2.59-0.94-3.54,0c-1.002,1.023-0.946,2.594,0,3.54
			C148.065,139.184,149.655,139.184,150.63,138.21z"/>
		<path d="M182.33,212.05H73.67c-1.38,0-2.5,1.12-2.5,2.5s1.12,2.5,2.5,2.5h108.66c1.38,0,2.5-1.12,2.5-2.5
			S183.71,212.05,182.33,212.05z"/>
		<path d="M182.33,191.5H73.67c-1.38,0-2.5,1.12-2.5,2.5c0,1.38,1.12,2.5,2.5,2.5h108.66c1.38,0,2.5-1.12,2.5-2.5
			C184.83,192.62,183.71,191.5,182.33,191.5z"/>
		<path d="M73.67,47.37h55.25c1.37,0,2.5-1.12,2.5-2.5c0-1.38-1.13-2.5-2.5-2.5H73.67c-1.38,0-2.5,1.12-2.5,2.5
			C71.17,46.25,72.29,47.37,73.67,47.37z"/>
		<path d="M73.67,66.91h55.25c1.37,0,2.5-1.13,2.5-2.51c0-1.37-1.13-2.5-2.5-2.5H73.67c-1.38,0-2.5,1.13-2.5,2.5
			C71.17,65.78,72.29,66.91,73.67,66.91z"/>
		<path d="M73.67,86.44h55.25c1.37,0,2.5-1.12,2.5-2.5s-1.13-2.5-2.5-2.5H73.67c-1.38,0-2.5,1.12-2.5,2.5S72.29,86.44,73.67,86.44z"
			/>
	</g>
</g>
</svg>
